<mxfile host="app.diagrams.net" modified="2024-02-07T20:00:11.236Z" agent="Mozilla/5.0 (Macintosh; Intel Mac OS X 10_15_7) AppleWebKit/537.36 (KHTML, like Gecko) Chrome/121.0.0.0 Safari/537.36" etag="0IkWk6HAxqN3vRiSXMF4" version="23.1.2" type="device">
  <diagram name="Page-1" id="6qeycCssqSphjqNNlBgE">
    <mxGraphModel dx="1334" dy="1815" grid="1" gridSize="10" guides="1" tooltips="1" connect="1" arrows="1" fold="1" page="1" pageScale="1" pageWidth="850" pageHeight="1100" math="0" shadow="0">
      <root>
        <mxCell id="0" />
        <mxCell id="1" parent="0" />
        <mxCell id="xhWvTkzVpKI2fgsKUvxx-1" value="" style="verticalLabelPosition=bottom;html=1;verticalAlign=top;align=center;strokeColor=none;fillColor=#00BEF2;shape=mxgraph.azure.git_repository;" parent="1" vertex="1">
          <mxGeometry x="120" y="-790" width="50" height="50" as="geometry" />
        </mxCell>
        <mxCell id="axgb1KFfcpGdCzpLAOpK-3" value="" style="image;aspect=fixed;html=1;points=[];align=center;fontSize=12;image=img/lib/azure2/containers/Azure_Red_Hat_OpenShift.svg;" vertex="1" parent="1">
          <mxGeometry x="320" y="-930" width="68" height="68" as="geometry" />
        </mxCell>
        <mxCell id="axgb1KFfcpGdCzpLAOpK-4" value="commit" style="ellipse;whiteSpace=wrap;html=1;aspect=fixed;" vertex="1" parent="1">
          <mxGeometry x="230" y="-810" width="70" height="70" as="geometry" />
        </mxCell>
      </root>
    </mxGraphModel>
  </diagram>
</mxfile>
